<?xml version="1.0" encoding="UTF-8"?>
<svg version="1.1" xmlns="http://www.w3.org/2000/svg" width="512" height="512">
<path d="M0 0 C1.01790619 0.00215515 2.03581238 0.0043103 3.08456421 0.00653076 C17.69363523 0.05620146 32.02575853 0.30709809 46.375 3.3125 C47.34985352 3.51117676 48.32470703 3.70985352 49.32910156 3.91455078 C97.7109774 14.03517194 141.69928269 35.9516877 177.375 70.3125 C178.3640332 71.26068604 178.3640332 71.26068604 179.37304688 72.22802734 C188.86130305 81.37247479 197.6012044 90.66984009 205.375 101.3125 C206.23306152 102.46355017 207.09113451 103.61459177 207.94921875 104.765625 C213.98677396 112.95525981 219.36957302 121.45788276 224.375 130.3125 C224.7771875 131.01971191 225.179375 131.72692383 225.59375 132.45556641 C238.6191741 155.59095836 247.36801461 180.76212409 252.6875 206.75 C252.83485596 207.46889404 252.98221191 208.18778809 253.1340332 208.9284668 C256.10789088 224.57475609 256.74800362 240.04818046 256.6875 255.9375 C256.68534485 256.95540619 256.6831897 257.97331238 256.68096924 259.02206421 C256.63129854 273.63113523 256.38040191 287.96325853 253.375 302.3125 C253.07698486 303.77478027 253.07698486 303.77478027 252.77294922 305.26660156 C242.65232806 353.6484774 220.7358123 397.63678269 186.375 433.3125 C185.74287598 433.97185547 185.11075195 434.63121094 184.45947266 435.31054688 C175.31502521 444.79880305 166.01765991 453.5387044 155.375 461.3125 C154.22394983 462.17056152 153.07290823 463.02863451 151.921875 463.88671875 C143.73224019 469.92427396 135.22961724 475.30707302 126.375 480.3125 C125.66778809 480.7146875 124.96057617 481.116875 124.23193359 481.53125 C101.09654164 494.5566741 75.92537591 503.30551461 49.9375 508.625 C49.21860596 508.77235596 48.49971191 508.91971191 47.7590332 509.0715332 C33.08339502 511.86090125 18.55831162 512.66142619 3.64770508 512.62817383 C0.70811513 512.6250221 -2.2304558 512.64854926 -5.16992188 512.67382812 C-18.54306192 512.71848737 -31.43916711 511.51301542 -44.625 509.3125 C-46.33055054 509.03031616 -46.33055054 509.03031616 -48.07055664 508.74243164 C-91.33802759 500.97044532 -132.38793216 480.98345309 -165.625 452.3125 C-166.37007813 451.67828125 -167.11515625 451.0440625 -167.8828125 450.390625 C-181.38779833 438.57948485 -194.05918743 425.82889772 -204.625 411.3125 C-205.48149066 410.16255169 -206.33826433 409.01281411 -207.1953125 407.86328125 C-213.23534209 399.67315742 -218.61867614 391.16870382 -223.625 382.3125 C-224.0271875 381.60528809 -224.429375 380.89807617 -224.84375 380.16943359 C-237.8691741 357.03404164 -246.61801461 331.86287591 -251.9375 305.875 C-252.08485596 305.15610596 -252.23221191 304.43721191 -252.3840332 303.6965332 C-255.35789088 288.05024391 -255.99800362 272.57681954 -255.9375 256.6875 C-255.93534485 255.66959381 -255.9331897 254.65168762 -255.93096924 253.60293579 C-255.88129854 238.99386477 -255.63040191 224.66174147 -252.625 210.3125 C-252.42632324 209.33764648 -252.22764648 208.36279297 -252.02294922 207.35839844 C-241.90232806 158.9765226 -219.9858123 114.98821731 -185.625 79.3125 C-184.99287598 78.65314453 -184.36075195 77.99378906 -183.70947266 77.31445312 C-174.56502521 67.82619695 -165.26765991 59.0862956 -154.625 51.3125 C-153.47394983 50.45443848 -152.32290823 49.59636549 -151.171875 48.73828125 C-142.98224019 42.70072604 -134.47961724 37.31792698 -125.625 32.3125 C-124.91778809 31.9103125 -124.21057617 31.508125 -123.48193359 31.09375 C-100.34654164 18.0683259 -75.17537591 9.31948539 -49.1875 4 C-48.46860596 3.85264404 -47.74971191 3.70528809 -47.0090332 3.5534668 C-31.36274391 0.57960912 -15.88931954 -0.06050362 0 0 Z " fill="#A2011D" transform="translate(255.625,-0.3125)"/>
<path d="M0 0 C7.03228687 10.54843031 9.23105931 26.11787824 11.8125 38.375 C12.10411011 39.74241333 12.10411011 39.74241333 12.40161133 41.13745117 C15.65139541 57.29209212 16.37508573 73.18888298 16.3125 89.625 C16.31034485 90.64290619 16.3081897 91.66081238 16.30596924 92.70956421 C16.25631894 107.31263423 16.0265612 121.65929136 13 136 C12.79068848 137.00144043 12.58137695 138.00288086 12.36572266 139.03466797 C9.36467421 153.00345467 5.32127956 166.31594806 1 180 C-162.35 179.505 -162.35 179.505 -329 179 C-329 120.26 -329 61.52 -329 1 C-246.5179099 0.62805534 -246.5179099 0.62805534 -212.1484375 0.49804688 C-204.28092359 0.46824756 -196.41341043 0.43826031 -188.54589844 0.40795898 C-187.06671527 0.40227371 -187.06671527 0.40227371 -185.55764961 0.39647359 C-169.61849916 0.33493688 -153.67941344 0.26278217 -137.74032636 0.1867362 C-121.39359308 0.10898052 -105.04684238 0.0425642 -88.70001924 -0.01323253 C-78.60575427 -0.04804757 -68.51160817 -0.09180343 -58.41743289 -0.14684484 C-51.50402325 -0.18369659 -44.59062796 -0.20957607 -37.67714144 -0.22667392 C-33.68298189 -0.23688077 -29.68899818 -0.25207161 -25.69492149 -0.28024101 C-22.04326877 -0.30588909 -18.39184435 -0.31785838 -14.740104 -0.31862888 C-12.78306154 -0.32269084 -10.82606795 -0.34167559 -8.86911738 -0.36107081 C-7.14408852 -0.35733619 -7.14408852 -0.35733619 -5.38421059 -0.35352612 C-4.38554612 -0.35770304 -3.38688165 -0.36187996 -2.35795462 -0.36618346 C-1.19076708 -0.18492265 -1.19076708 -0.18492265 0 0 Z " fill="#F0F0F0" transform="translate(496,166)"/>
<path d="M0 0 C1.01790619 0.00215515 2.03581238 0.0043103 3.08456421 0.00653076 C17.69363523 0.05620146 32.02575853 0.30709809 46.375 3.3125 C47.34985352 3.51117676 48.32470703 3.70985352 49.32910156 3.91455078 C97.7109774 14.03517194 141.69928269 35.9516877 177.375 70.3125 C178.3640332 71.26068604 178.3640332 71.26068604 179.37304688 72.22802734 C188.86130305 81.37247479 197.6012044 90.66984009 205.375 101.3125 C206.23306152 102.46355017 207.09113451 103.61459177 207.94921875 104.765625 C240.375 148.7495386 240.375 148.7495386 240.375 167.3125 C131.805 167.3125 23.235 167.3125 -88.625 167.3125 C-88.955 117.1525 -89.285 66.9925 -89.625 15.3125 C-58.55302955 5.75189371 -31.88935003 -0.12142882 0 0 Z " fill="#6DA544" transform="translate(255.625,-0.3125)"/>
<path d="M0 0 C108.57 0 217.14 0 329 0 C327.87256158 6.7646305 327.87256158 6.7646305 326.3203125 10.2578125 C325.80138428 11.42812012 325.80138428 11.42812012 325.27197266 12.62207031 C324.89347168 13.44803711 324.5149707 14.27400391 324.125 15.125 C323.52824463 16.43355957 323.52824463 16.43355957 322.91943359 17.76855469 C310.82778281 43.84015424 294.93996674 67.29697906 275 88 C274.36787598 88.65935547 273.73575195 89.31871094 273.08447266 89.99804688 C263.94002521 99.48630305 254.64265991 108.2262044 244 116 C242.84894983 116.85806152 241.69790823 117.71613451 240.546875 118.57421875 C232.35724019 124.61177396 223.85461724 129.99457302 215 135 C213.93918213 135.60328125 213.93918213 135.60328125 212.85693359 136.21875 C189.72154164 149.2441741 164.55037591 157.99301461 138.5625 163.3125 C137.84360596 163.45985596 137.12471191 163.60721191 136.3840332 163.7590332 C121.70839502 166.54840125 107.18331162 167.34892619 92.27270508 167.31567383 C89.33311513 167.3125221 86.3945442 167.33604926 83.45507812 167.36132812 C66.15562774 167.4193724 49.19603202 165.51322096 32.3125 161.6875 C30.91439087 161.37872925 30.91439087 161.37872925 29.48803711 161.0637207 C20.14880707 158.93069157 11.06541533 156.07822154 2 153 C2 152.34 2 151.68 2 151 C1.34 151 0.68 151 0 151 C0 101.17 0 51.34 0 0 Z " fill="#000000" transform="translate(167,345)"/>
</svg>
